HIERARCHY
ROOT Hips
{
   OFFSET 0.00000 0.00000 0.00000
   CHANNELS 6 Xposition Yposition Zposition Zrotation Xrotation Yrotation
   JOINT RightUpLeg
   {
      OFFSET -7.156640 -6.933656 0.081322
      CHANNELS 3 Zrotation Xrotation Yrotation
      JOINT RightLeg
      {
         OFFSET 0.000000 -35.538158 1.098160
         CHANNELS 3 Zrotation Xrotation Yrotation
         JOINT RightFoot
         {
            OFFSET 0.202839 -33.673920 -1.168472
            CHANNELS 3 Zrotation Xrotation Yrotation
            JOINT RightToes
            {
               OFFSET 0.032000 -3.532072 6.799280
               CHANNELS 3 Zrotation Xrotation Yrotation
               End Site
               {
                  OFFSET -0.064000 -0.109958 7.823832
               }
            }
         }
      }
   }
   JOINT Spine
   {
      OFFSET 0.000000 9.512400 0.000000
      CHANNELS 3 Zrotation Xrotation Yrotation
      JOINT Spine1
      {
         OFFSET 0.000000 20.525920 0.102130
         CHANNELS 3 Zrotation Xrotation Yrotation
         JOINT HEad
         {
            OFFSET 0.000000 6.987328 0.009073
            CHANNELS 3 Zrotation Xrotation Yrotation
            End Site
            {
               OFFSET -0.232000 10.219360 2.011160
            }
         }
         JOINT LeftShoulder1
         {
            OFFSET 7.192000 -0.289802 -0.176000
            CHANNELS 3 Zrotation Xrotation Yrotation
            JOINT LeftArm
            {
               OFFSET 8.226160 -0.002704 0.257698
               CHANNELS 3 Zrotation Xrotation Yrotation
               JOINT LeftForeArm
               {
                  OFFSET 26.213519 0.079315 -1.139472
                  CHANNELS 3 Zrotation Xrotation Yrotation
                  JOINT LeftHand
                  {
                     OFFSET 22.051441 0.068290 0.817728
                     CHANNELS 3 Zrotation Xrotation Yrotation
                     End Site
                     {
                        OFFSET 13.395442 -0.480000 1.202328
                     }
                  }
               }
            }
         }
         JOINT RightShoulder
         {
            OFFSET -7.192000 -0.289802 -0.176000
            CHANNELS 3 Zrotation Xrotation Yrotation
            JOINT RightArm
            {
               OFFSET -8.226160 -0.002704 0.257698
               CHANNELS 3 Zrotation Xrotation Yrotation
               JOINT RightForeArm
               {
                  OFFSET -26.317679 0.079315 -1.139472
                  CHANNELS 3 Zrotation Xrotation Yrotation
                  JOINT RightHand
                  {
                     OFFSET -21.993682 0.068290 0.817728
                     CHANNELS 3 Zrotation Xrotation Yrotation
                     End Site
                     {
                        OFFSET -13.304962 -0.480000 1.202328
                     }
                  }
               }
            }
         }
      }
   }
   JOINT LeftUpLeg
   {
      OFFSET 7.156640 -6.933656 0.081322
      CHANNELS 3 Zrotation Xrotation Yrotation
      JOINT LeftLeg
      {
         OFFSET 0.000000 -35.538158 1.098160
         CHANNELS 3 Zrotation Xrotation Yrotation
         JOINT LeftFoot
         {
            OFFSET -0.202839 -33.673920 -1.168472
            CHANNELS 3 Zrotation Xrotation Yrotation
            JOINT LeftToes
            {
               OFFSET -0.032000 -3.532072 6.799280
               CHANNELS 3 Zrotation Xrotation Yrotation
               End Site
               {
                  OFFSET 0.064000 -0.037958 7.823832
               }
            }
         }
      }
   }
}
MOTION
Frames: 10
Frame Time: 0.016667
-947.107454 88.725737 366.235384 -2.033277 -9.583464 11.968131 -9.985640 -20.657294 -148.721618 -22.126668 -20.379176 78.078051 -41.782887 15.500694 63.905155 17.817525 -1.200504 3.489250 30.788034 11.842082 -33.965643 3.347491 16.783940 26.308248 -27.785973 12.711868 35.562603 -27.463709 -50.221466 -32.116509 -336.968257 -97.565851 0.776381 -80.949367 75.795115 -13.641532 -0.668456 -6.284986 0.168667 -20.405538 -80.074160 2.544135 52.681980 -11.406237 11.753729 43.758430 63.627495 61.062759 -36.694597 1.513322 12.345566 11.476687 -22.497911 -103.027168 -33.378332 -5.379688 61.245726 -36.108273 20.145430 45.592718 -28.631963 -13.409929 -1.942863
-947.506471 88.062914 365.793566 -2.398076 -11.195472 7.153077 -10.844255 -17.669891 -152.267388 -22.202462 -23.563331 83.637367 -42.811653 15.012163 62.391927 16.132456 -3.177421 2.682736 29.369226 13.587370 -32.971338 1.760793 16.233294 26.606657 -27.967104 11.979220 35.140681 -27.534663 -52.204082 -29.638441 -0.446895 -93.781182 -21.648358 -83.221948 72.446717 -15.051150 -3.419025 -3.481458 -2.974533 -19.201460 -81.602681 0.272079 55.002465 -7.441582 11.539718 43.616669 61.830663 60.349400 -35.412769 1.322486 13.093561 10.695148 -19.534281 -102.713894 -33.111425 -3.548642 63.756893 -32.574805 21.503712 45.149425 -27.976620 -13.995036 -0.480898
-948.130632 87.297782 365.493960 -3.605922 -12.718173 3.243972 -12.035742 -15.630150 -155.057452 -21.636784 -25.723573 93.151131 -56.943840 15.924600 60.986008 14.265455 -4.845393 3.676398 27.984571 15.913996 -29.640330 -0.056966 15.947283 27.686792 -27.441214 11.193630 32.934745 -28.559724 -55.776681 -27.307813 -14.486601 -87.687697 -32.022765 -83.290749 70.234063 -18.797364 -2.425869 -2.545131 -3.657580 -15.989889 -82.791612 -1.842601 58.341331 -3.796031 8.490542 43.742768 60.233587 61.024079 -35.090022 2.037570 14.520287 10.087624 -15.675802 -104.066559 -31.112762 -1.603864 68.250529 -29.161144 23.645671 44.401216 -27.540569 -14.748462 1.870249
-949.172120 86.530856 364.993433 -3.458474 -11.964351 -2.924128 -16.264931 -13.869676 -159.777864 -20.130763 -28.558276 103.883871 -52.321790 19.583877 60.984157 12.434279 -3.633670 3.995259 24.518793 19.102043 -24.467049 -1.843382 14.287782 29.193075 -25.440479 10.376619 29.266770 -27.437983 -57.657424 -25.792977 -12.213447 -84.345125 -29.156749 -83.315399 67.558514 -20.839063 -0.703767 -12.721192 10.903189 -14.224659 -86.577798 -3.500156 59.114625 -1.320459 6.988738 43.019195 59.286903 61.251067 -35.177783 1.357245 16.443974 10.679131 -12.238404 -106.145839 -27.319474 -2.220942 74.932059 -24.831516 25.595990 43.761015 -27.298927 -15.906976 4.858238
-950.636354 85.591658 364.290613 -1.687104 -10.393365 -3.625332 -21.729514 -14.788488 -166.138915 -17.563604 -32.136805 116.961730 -56.762123 24.487490 59.917493 10.597203 -2.212574 4.583748 20.095154 20.620083 -19.625912 -3.561162 13.369655 30.412244 -22.105279 9.373108 24.343839 -26.284410 -57.365912 -22.422268 -18.110042 -83.026058 -34.024471 -85.535108 64.270591 -20.300830 -0.033884 -1.832024 -4.378713 -12.505437 -91.422512 -7.216998 58.417078 -0.687331 5.240865 41.951042 58.690060 61.616448 -35.667880 1.390688 18.323500 11.825569 -11.132648 -109.215462 -21.706433 -5.427049 83.134822 -20.303897 29.569272 43.040645 -27.351262 -15.403301 8.913721
-952.587953 84.529799 363.459734 -0.341671 -8.688508 -4.061741 -27.052883 -15.276753 -169.482729 -14.926450 -36.199948 129.456783 -53.326538 27.170559 60.275545 8.753095 -1.344524 5.838897 15.022226 21.311952 -15.435109 -4.764264 11.874408 30.961691 -19.368801 8.597291 20.162338 -25.746321 -57.335695 -20.322722 -16.936333 -81.985506 -32.400379 -87.303218 61.319150 -21.724274 -0.307839 -3.198701 -0.411309 -11.079797 -95.579762 -9.850318 57.419734 0.077162 3.864679 50.334775 59.383857 57.766257 -35.695894 6.097661 19.685625 13.343673 -11.313393 -111.625659 -16.585221 -8.025442 88.646484 -15.755168 33.228290 41.317638 -27.149372 -15.661827 12.234216
-954.781556 83.478163 362.613100 0.988559 -7.942182 -5.847074 -32.085422 -15.759087 -170.933325 -11.617540 -38.362601 137.707501 -49.768255 28.650458 61.518448 6.954207 -0.812387 7.976483 9.655208 21.690801 -10.757119 -4.566670 10.987008 32.637933 -17.671935 7.689353 16.700084 -25.692231 -57.275883 -19.051025 -15.053904 -81.379757 -29.344883 -89.065639 58.961007 -24.674021 0.785121 2.027409 -9.546430 -9.039319 -98.546092 -12.415320 58.025879 4.304457 0.486192 47.966226 59.935689 61.457858 -34.408816 9.190020 21.725438 15.251246 -11.899090 -113.630743 -14.958051 -10.762965 92.033363 -11.094619 35.027498 38.249917 -26.761383 -15.755855 14.563078
-957.062135 82.422370 361.751055 2.154980 -8.251510 -9.877082 -36.040043 -16.276592 -172.775837 -9.006218 -37.668039 140.300801 -46.635702 28.909418 63.524249 5.516301 -0.446311 9.730141 3.717361 22.993232 -5.556501 -3.514076 10.946870 35.183168 -16.981198 6.751165 13.994261 -25.882244 -57.151587 -18.449038 -13.379563 -81.331632 -25.789577 -91.260411 57.867378 -28.911347 1.570318 -3.315280 9.009763 -6.354566 -99.481794 -14.954371 58.954764 6.244325 -3.127061 45.798635 60.507375 64.229132 -31.785873 10.977014 23.989810 16.495441 -12.188152 -114.743066 -17.000384 -12.819334 94.317700 -4.963548 33.983869 35.879032 -26.274676 -16.501800 16.742769
-959.498811 81.191338 360.708079 3.397204 -9.105207 -13.314830 -38.495592 -15.155814 -173.176796 -6.543620 -34.212967 137.122031 -42.196198 30.515567 66.356845 3.718406 2.155940 12.154527 -2.052373 21.334692 -0.608321 -3.298887 11.643618 37.688209 -16.676882 5.982245 11.852983 -25.216980 -55.795368 -15.864195 -11.093671 -79.999438 -23.984611 -91.916663 57.366786 -31.333968 2.368224 0.347526 -10.278083 -6.152154 -100.833734 -16.888261 58.444850 6.860511 -4.398666 43.968366 61.786909 65.884346 -28.551548 12.062034 25.996953 18.451418 -11.651538 -114.608334 -17.483464 -15.793132 96.117646 0.023460 34.547684 33.216525 -25.975426 -15.701444 19.239806
-961.909852 79.948000 359.633974 4.409028 -9.311471 -15.996984 -39.186431 -14.533150 -172.421555 -5.806397 -30.146959 130.869034 -42.986147 32.811409 69.437534 1.781782 5.601094 14.543459 -7.591826 20.062605 2.745486 -2.298447 12.324439 38.883106 -16.793168 5.158802 10.251343 -23.818220 -54.927650 -13.857119 -8.521340 -78.931722 -21.944851 -91.442675 56.532441 -32.823550 1.280356 -1.397859 -1.554237 -6.763546 -101.229462 -18.825473 57.624537 6.859575 -5.238723 43.365749 64.043952 67.605738 -25.351019 12.520816 28.411550 20.926986 -11.316616 -113.573000 -16.353172 -18.342019 97.565086 4.390091 36.606576 30.534207 -25.736660 -13.746915 21.753510
